<svg xmlns="http://www.w3.org/2000/svg" viewBox="0 0 48.74 57"><defs><style>.cls-1{fill:#664497;}.cls-1,.cls-2,.cls-3,.cls-4,.cls-5{fill-rule:evenodd;}.cls-2{fill:#fff;}.cls-3{fill:#593984;}.cls-4{fill:#0d131a;}.cls-5{fill:#e50020;}</style></defs><title>Asset 64@</title><g id="Layer_2" data-name="Layer 2"><g id="Layer_1-2" data-name="Layer 1"><path class="cls-1" d="M41.14,9.78a27.4,27.4,0,0,1,7-.37l-3,5.07c-1.64,2.7-2.87,4.83-3.71,6.41a13.87,13.87,0,0,1,2.13-.61,14.61,14.61,0,0,1,2-.33q.12,0,.12.06l0,.17c-.07.22-.22.58-.45,1.09l-.62,1.38,1.75-.11c1.12,0,1.78.11,2,.41s-.48,1.25-2,2.84l-2.44,2.39a7.17,7.17,0,0,1,1.6.14c.61.13.93.26,1,.41a9.46,9.46,0,0,1-1.82,2.14c-1,1.08-1.93,2-2.7,2.69a21.65,21.65,0,0,1,.24,4.6,14.46,14.46,0,0,1-1,4.57q-1.26,3.15-6.81,5a32.09,32.09,0,0,1-6.21,1.41,14.55,14.55,0,0,1-6.9-.86,17.45,17.45,0,0,1-6.94-4.53,19.94,19.94,0,0,1-4.07-6.32,21.43,21.43,0,0,1-1.48-8.8,29.63,29.63,0,0,1,.26-3,19.31,19.31,0,0,1,.62-3.11q-1.43-4-1.55-12a53.66,53.66,0,0,1,.21-6.18,12.94,12.94,0,0,1,.87-4c.06-.13.12-.19.16-.18s.13.09.25.25q2.38,3.42,3.63,5A16.77,16.77,0,0,0,17,9.28a9.43,9.43,0,0,1,1.74-1.94A7.19,7.19,0,0,1,20.64,6a9.4,9.4,0,0,0,.24,1.67,9.39,9.39,0,0,0,.48,1.64,21.47,21.47,0,0,1,4.17-4.57A14.08,14.08,0,0,1,30.91,1.8,23.42,23.42,0,0,0,30.64,6c0,1,0,1.83.05,2.62l1.47-.41a13.11,13.11,0,0,1,3-.41l-.42,1.71-.48,2.07a29.11,29.11,0,0,1,6.91-1.81Z"/><path class="cls-1" d="M.32,32.74c0-.09.23-.28.64-.54l.72-.48.19-.16A.59.59,0,0,0,2,31.31a4.59,4.59,0,0,1,.51-1A11.9,11.9,0,0,1,4,28.55,7.51,7.51,0,0,1,9.6,26.1c.52,0,1,.47,1.43,1.35a10.37,10.37,0,0,1,.85,3.05,6.5,6.5,0,0,1-.2,2.72c-.28,1-.65,1.41-1.09,1.3a11.61,11.61,0,0,0-5.07.07,13.3,13.3,0,0,0-3.24,1q-.13.08-.18-.45a2,2,0,0,1,0-.66l-.73-.07-.86,0s0-.21.23-.49l.3-.41c-.52-.34-.77-.6-.75-.76Z"/><path class="cls-1" d="M21.16,44.72c.61,1.32.71,2.29.28,2.91a11.85,11.85,0,0,1-5.72,4.15A15.79,15.79,0,0,1,13,52.6a3.5,3.5,0,0,1-1.35.14c-.09,0-.11-.14-.06-.33l.18-.56-1.1.07-.65-.09a1.69,1.69,0,0,1,.15-.67l.18-.64-.26-.12q-.26-.1-.27-.15c0-.12.18-.49.65-1.1l.16-.15A5.33,5.33,0,0,1,10,47.53a6.63,6.63,0,0,1-.34-2.72A4.76,4.76,0,0,1,11,42.2a5,5,0,0,1,2.69-1.72,5.5,5.5,0,0,1,2.32,0,8,8,0,0,1,3,1.39,7.19,7.19,0,0,1,2.2,2.84Z"/><path class="cls-1" d="M29.07,45.15A12,12,0,0,1,33,43a10.64,10.64,0,0,1,4.16-.42,3.91,3.91,0,0,1,2.73,1.09,9.12,9.12,0,0,1,1.7,5.28,12.33,12.33,0,0,1-.3,4.09,4,4,0,0,1,.15,1.15c0,.44-.06.69-.18.73h-.8a2.3,2.3,0,0,1-.82-.2l-.44.81a2.14,2.14,0,0,1-.44.62c-.08,0-.4,0-1-.21l-.92-.34a6,6,0,0,1-.76.72c-.31.25-.51.37-.58.36a6.56,6.56,0,0,1-.92-2,16.64,16.64,0,0,1-5-3.21,7.64,7.64,0,0,1-2.39-3.75c-.12-.57.52-1.42,1.92-2.54Z"/><path class="cls-1" d="M42.85,48.11a3.92,3.92,0,0,1-2.24,0,3.25,3.25,0,0,1-1.36-1,2.86,2.86,0,0,1-.63-1.93,1.75,1.75,0,0,1,.91-1.46c.55-.34,1-.43,1.24-.27a25.05,25.05,0,0,1,2,1.69c1.17,1.07,1.75,1.69,1.74,1.84-.06.51-.6.88-1.63,1.11Z"/><path class="cls-1" d="M37.62,29.39A5.9,5.9,0,0,1,42.11,31,8.15,8.15,0,0,1,44,33.24c.1.19.21.26.32.2a2.69,2.69,0,0,1,.77-.16c.44,0,.71,0,.82.15l-.14.4c-.1.25-.13.37-.11.37a2.28,2.28,0,0,1,.7.19c.42.16.62.34.62.53l-.46.33a1.86,1.86,0,0,0-.47.31l.38.35q.38.33.33.42s-.15.11-.42.19l-.45.14a10,10,0,0,1-2.56.9,16.52,16.52,0,0,1-2.77.4A9.11,9.11,0,0,1,38,37.73a5.66,5.66,0,0,1-2.23-.87,3.9,3.9,0,0,1-.86-1.5,6,6,0,0,1-.42-3,3.32,3.32,0,0,1,1.35-2,3.75,3.75,0,0,1,1.74-.94Z"/><path class="cls-2" d="M29.45,29.36c.27-.1.44-.07.52.09A.93.93,0,0,1,30,30a10.88,10.88,0,0,1-.81,2.27,9.21,9.21,0,0,1-1.26,2A5.32,5.32,0,0,1,27,35a4.17,4.17,0,0,1-1.36.64,13.36,13.36,0,0,1-5.75-.36A11.18,11.18,0,0,1,15,33.12,14.21,14.21,0,0,1,13.08,31a7,7,0,0,1-1-1.93c-.08-.28-.18-.68-.28-1.2s-.13-.82-.07-.75A9.5,9.5,0,0,0,15.2,29a17.13,17.13,0,0,0,4.58,1.06,44.4,44.4,0,0,0,4.45.1,16.54,16.54,0,0,0,5.22-.81Z"/><path class="cls-3" d="M48.07,23c.16-.09.26-.1.31-.05s0,.14-.05.27a28.65,28.65,0,0,1-2.66,3.08,18.09,18.09,0,0,1-3.25,3l-.19-.92L42,27.63a32.91,32.91,0,0,0,2.89-2.12L48.07,23Z"/><path class="cls-3" d="M42.51,31.24l1.56-1,2-1.42c.15-.13.22-.11.19.06a11.61,11.61,0,0,1-1.52,1.8l-1.48,1.51-.31-.4a4.84,4.84,0,0,1-.42-.5Z"/><path class="cls-3" d="M29.84,5a18.22,18.22,0,0,1,.85-2.74l.09-.09s0,0,0,.06c-.1.75-.18,1.69-.25,2.81a21.48,21.48,0,0,0,0,3.24.54.54,0,0,1-.07.27l-.16.19-.53.35c-.16.08-.27,0-.32-.13a8.61,8.61,0,0,1,.35-4Z"/><path class="cls-3" d="M35.07,8.35A11.48,11.48,0,0,1,34.72,10a13,13,0,0,0-.33,1.4,1.77,1.77,0,0,0-.69.29A2.14,2.14,0,0,1,33,12c-.13-.16.09-.86.64-2.1s1-1.87,1.21-1.84l.1.08a.23.23,0,0,1,.08.17Z"/><path class="cls-3" d="M20.85,7.84c.13.58.27,1.09.41,1.54l-.46.92a3.23,3.23,0,0,1-.47-.74,2.93,2.93,0,0,1-.3-1A4.17,4.17,0,0,1,20.27,7q.26-.86.36-.84a7.7,7.7,0,0,0,.22,1.64Z"/><path class="cls-3" d="M8.06,4.63a2.58,2.58,0,0,1,.21-.79c.09-.2.14-.17.15.11a54.93,54.93,0,0,0,.7,7.37,31.92,31.92,0,0,0,2,7.68l-.67,1.34c-.41.79-.74,1.47-1,2a38.32,38.32,0,0,1-1.6-9.9,43,43,0,0,1,.17-7.84Z"/><path class="cls-3" d="M8.87,33.21l.29,1.17a10.33,10.33,0,0,0-2.56,0c-.34.06-1.18.3-2.52.73l-.15-.1c-.08-.08-.09-.13,0-.16a16.67,16.67,0,0,0,4.76-2.67,5.17,5.17,0,0,0,.21,1Z"/><path class="cls-3" d="M42.94,37.67a13.29,13.29,0,0,1-2.33.38,9.5,9.5,0,0,1-2.71-.27A4.65,4.65,0,0,1,36,37a30.5,30.5,0,0,0,3.26.06A14.47,14.47,0,0,0,42,36.8l.68-.09h.4c.2.2.73.23,1.6.09l1.22-.27a11.17,11.17,0,0,1-3,1.13Z"/><path class="cls-3" d="M18.57,45.4a17.06,17.06,0,0,0,8.34,2.12q.27,0,.63.81c.25.55.23.83-.05.86a13,13,0,0,1-4.39-.34A18.39,18.39,0,0,1,18.38,47a17.62,17.62,0,0,1-7.63-8.31,5.9,5.9,0,0,1-.32-.8c0-.11,0-.08.11.07a20.32,20.32,0,0,0,8,7.47Z"/><path class="cls-3" d="M18,46.8a9,9,0,0,0,1.23.59l1.52.67c.34.15.07.63-.81,1.42a9.92,9.92,0,0,1-2.52,1.72,11.52,11.52,0,0,1-2,.67c-.87.22-1.23.29-1.1.21a7.65,7.65,0,0,0,2.46-2.46,6.34,6.34,0,0,0,1.22-2.69v-.14Z"/><path class="cls-3" d="M41.24,48.37c-.34-2-.39-2.91-.16-2.67a5.84,5.84,0,0,0,1.71,1.16,6.68,6.68,0,0,0,1.47.57c.2,0-.12.24-.95.59a3.55,3.55,0,0,1-2.07.35Z"/><path class="cls-3" d="M42.61,15.94c1.29-1.66,2.49-3.11,3.57-4.35S47.9,9.72,48,9.79q-.91,1.26-3.87,6.27Q41,21.28,39.9,23.59l1,1.33a7.42,7.42,0,0,1,.89,1.75,19.31,19.31,0,0,1,.66,2.92c.17,1.12.2,1.67.11,1.65a7.5,7.5,0,0,0-1.21-.8,11.84,11.84,0,0,0-2.28-1.06A14.15,14.15,0,0,0,38.65,26a10.15,10.15,0,0,0-.94-2.49q-.18-1.11,4.9-7.6Z"/><path class="cls-3" d="M39.26,38,41,37.94l1.27-.23a35.27,35.27,0,0,1-1.91,6.55,5.92,5.92,0,0,0-1-1.23,7.27,7.27,0,0,0-.23-2.19q-.29-1.16-.45-1.23a4.88,4.88,0,0,1-2-1.27,3.46,3.46,0,0,1-.94-1.47,12.76,12.76,0,0,0,1.82.72,11.83,11.83,0,0,0,1.73.44Z"/><path class="cls-4" d="M17,9.1c.13.09.14.2,0,.3s-.18.14-.26.08a27,27,0,0,1-4-3.93A33.11,33.11,0,0,1,9.6,1.18C9.46.94,9.37.81,9.32.8S9.12,1,9,1.32c-.6,2-.84,5.24-.72,9.71A49.34,49.34,0,0,0,9.6,22a2.28,2.28,0,0,1,.08.85c0,.21-.13.13-.27-.23Q8.07,19.12,7.75,11.94T8.52,1.12C8.74.41,9,0,9.24,0s.55.25.89.85a33.63,33.63,0,0,0,3.42,4.72A22.2,22.2,0,0,0,17,9.1Z"/><path class="cls-4" d="M21.18,7.88a8.39,8.39,0,0,0,.35,1.36c0,.07,0,.16-.11.28s-.18.13-.21,0a8.5,8.5,0,0,1-.48-1.65,10.61,10.61,0,0,1-.2-1.38l0-.1h-.1a12.85,12.85,0,0,0-2.23,1.9A11.47,11.47,0,0,0,15.5,12c-.07.18-.15.25-.23.22s-.07-.23,0-.55a9.56,9.56,0,0,1,2-3.08A13.69,13.69,0,0,1,20,6.11c.43-.27.68-.39.77-.37s.13.19.16.52q.07.76.24,1.62Z"/><path class="cls-4" d="M30.94,5.65c-.09,1.18-.12,2.11-.11,2.79q0,.32-.18.39c-.13.05-.2,0-.22-.17a18.19,18.19,0,0,1,0-2.89c0-.72.12-1.66.25-2.84.05-.42,0-.67,0-.74l-.46,0a15,15,0,0,0-4.89,3A19.2,19.2,0,0,0,21,10.32c-.13.22-.21.3-.27.24s0-.24.08-.53A13.44,13.44,0,0,1,24,5.74a17.46,17.46,0,0,1,5.88-4.1c.79-.31,1.24-.4,1.36-.29s.09.41,0,1c-.13,1-.24,2.05-.33,3.26Z"/><path class="cls-4" d="M34.19,7.61a3,3,0,0,1,1.23,0c.06,0,0,.32-.14.8a22.14,22.14,0,0,0-.7,2.9.34.34,0,0,1-.2.3c-.11,0-.17,0-.16-.14a12,12,0,0,1,.18-1.57l.26-1.25c.06-.3.05-.47,0-.52l-.57,0a16,16,0,0,0-2.15.43A15.77,15.77,0,0,0,30,9.19c-.41.17-.62.2-.63.1s.14-.23.5-.43a10.38,10.38,0,0,1,2.09-.81,10.42,10.42,0,0,1,2.25-.44Z"/><path class="cls-4" d="M44,19.89l1.76-.05c.12.07,0,.47-.21,1.21a7.4,7.4,0,0,1-.72,1.55.38.38,0,0,1-.41.13c-.19,0-.26-.1-.21-.19A10,10,0,0,0,45,21c.2-.47.26-.73.18-.77a3.6,3.6,0,0,0-1.27.16,14.48,14.48,0,0,0-2.75.86q-.25.11-.18-.12a.72.72,0,0,1,.39-.41A8.1,8.1,0,0,1,44,19.89Z"/><path class="cls-4" d="M41.16,10a42.14,42.14,0,0,0-7.65,2c-.58.21-.9.28-.95.22s.16-.22.64-.48a24.6,24.6,0,0,1,6.09-1.9A33.23,33.23,0,0,1,46.73,9c1,0,1.6.13,1.69.31s-.16.69-.7,1.56l-3.91,6.3c-1.07,1.78-2.17,3.65-3.28,5.61q-.73,1.32-.84,1.11t.51-1.38c.94-1.81,2.19-4,3.76-6.67,1.21-2,2.35-3.86,3.43-5.54.19-.3.27-.5.22-.61s-.24-.14-.58-.16a30.11,30.11,0,0,0-5.87.45Z"/><path class="cls-4" d="M9.5,21.87a14.26,14.26,0,0,1,2.13-4.15,6.59,6.59,0,0,1,.92-1c.24-.2.14.06-.28.77a25.36,25.36,0,0,0-2.41,5.08,20.34,20.34,0,0,0-1,5.89,21.72,21.72,0,0,0,1.68,9.43,18.76,18.76,0,0,0,4.69,6.57,18.2,18.2,0,0,0,6.14,3.71,13.88,13.88,0,0,0,6.05.88l.28.21c.16.14.22.21.18.22a15.74,15.74,0,0,1-6.7-.87,18.31,18.31,0,0,1-6.44-3.84A18.73,18.73,0,0,1,10,38,22.87,22.87,0,0,1,8.34,28.3,21.92,21.92,0,0,1,9.5,21.87Z"/><path class="cls-4" d="M.59,32.8s.08.11.24.24a1.83,1.83,0,0,0,.35.24.18.18,0,0,1,.11.21c0,.11-.12.12-.3,0-.67-.26-1-.5-1-.71s.28-.38.81-.72a4.65,4.65,0,0,0,.84-.56,9,9,0,0,1,2.58-3.62,9.64,9.64,0,0,1,4.66-2.31c.17,0,.22.08.14.32s-.21.38-.36.41a9.78,9.78,0,0,0-4,1.95A9.1,9.1,0,0,0,2,31.79a2.82,2.82,0,0,1-.74.54,3.67,3.67,0,0,0-.67.47Z"/><path class="cls-4" d="M21.21,48.39A13.19,13.19,0,0,1,16,52a13.43,13.43,0,0,1-2.7.86,3.51,3.51,0,0,1-1.85,0c-.16-.07-.18-.29-.06-.67a3.42,3.42,0,0,1,.32-.7c.19-.34.33-.49.41-.45s.07.2,0,.51A2.46,2.46,0,0,0,12,52c0,.19,0,.31.07.36s.53.06,1.24-.11a18.92,18.92,0,0,0,2.44-.82,11.22,11.22,0,0,0,4.84-3.24c.06-.09.2-.11.4,0s.28.12.21.21Z"/><path class="cls-4" d="M10.74,50.51a3.92,3.92,0,0,0-.28.69c-.1.3-.13.48-.09.53s.53,0,1.43-.16c.18,0,.25,0,.21.13a.45.45,0,0,1-.23.22,4.91,4.91,0,0,1-1.08.33c-.51.09-.8.07-.89-.08s0-.41.12-.88a2.62,2.62,0,0,1,.44-.91c.16-.18.29-.26.39-.23s.1.15,0,.36Z"/><path class="cls-4" d="M9.74,49.66a3,3,0,0,1,.76-.88c.07-.05.17,0,.28.11s.13.21.06.26a2.07,2.07,0,0,0-.59.62.88.88,0,0,0-.2.43s.11.07.27.1l.33.06c.07,0,.07.08,0,.22s-.14.2-.22.19l-.49-.06a.71.71,0,0,1-.48-.23c-.07-.12,0-.39.28-.82Z"/><path class="cls-4" d="M11.91,41.19c.26-.14.4-.13.44,0a.3.3,0,0,1-.16.35A4.4,4.4,0,0,0,10,45.2a5.74,5.74,0,0,0,1.57,4.62c.23.25.31.43.24.52s-.22,0-.49-.26a5.89,5.89,0,0,1-1.87-5.31,5.33,5.33,0,0,1,.9-2.17,4.28,4.28,0,0,1,1.57-1.41Z"/><path class="cls-4" d="M26.87,47.63c-.19-.69-.22-1-.1-1.05s.32.32.57,1a10,10,0,0,0,3,4.29,19.4,19.4,0,0,0,4.31,2.6c.1,0,.26.35.49.93a2.7,2.7,0,0,0,.43.87c.11,0,.33-.15.66-.55l.45-.6a7.4,7.4,0,0,0,1.92.79,5.77,5.77,0,0,0,.79-1.7c1,.32,1.55.44,1.64.36a.51.51,0,0,0,.07-.43,3.22,3.22,0,0,0-.28-.92.49.49,0,0,1,0-.21,11.29,11.29,0,0,0,.19-4.67,12.56,12.56,0,0,0-1.71-4.88c-.28-.46-.36-.71-.22-.74s.35.15.63.5a10.08,10.08,0,0,1,1.9,5A11.47,11.47,0,0,1,41.36,53a7,7,0,0,0,.2.88,2,2,0,0,1,0,1.1c-.1.15-.43.16-1,0l-.9-.23-.25.78a2.13,2.13,0,0,1-.59,1q-.2.11-1.14-.36l-.9-.48-.56.66q-.6.65-.81.6c-.2,0-.43-.41-.7-1.12s-.48-1.13-.61-1.18a15.82,15.82,0,0,1-4.74-2.82,8.84,8.84,0,0,1-2.53-4.25Z"/><path class="cls-4" d="M13.07,20a21,21,0,0,0,1.67,3.59,17.26,17.26,0,0,0,2.57,3.82l.29.26c.07.08.07.12,0,.11a12.86,12.86,0,0,1-3.25-.58,4,4,0,0,1-2.25-1.52,4,4,0,0,1-.44-2.81A5.79,5.79,0,0,1,13,20l0-.06s.05,0,.07.06Z"/><path class="cls-5" d="M13,20.37a32,32,0,0,0,1.66,3.34,17.36,17.36,0,0,0,2.24,3.51q.15.13.06.15a7.06,7.06,0,0,1-2.3-.43,3.76,3.76,0,0,1-2.16-1.47,4,4,0,0,1-.43-2.74A5,5,0,0,1,13,20.37Z"/><path class="cls-4" d="M29.78,27.64a5.68,5.68,0,0,1-3.48.95,12.65,12.65,0,0,1-4-.48c-.13,0-.13-.07,0-.1l.47-.13a39.28,39.28,0,0,0,4.5-2.47,31.41,31.41,0,0,0,3.6-2.33,7.33,7.33,0,0,1,0,2.38,3.64,3.64,0,0,1-1,2.18Z"/><path class="cls-5" d="M29.18,27.51a6.8,6.8,0,0,1-3.53.74A11,11,0,0,1,23,28c.5-.23,1.78-1,3.85-2.2a43.29,43.29,0,0,0,3.73-2.37,4.81,4.81,0,0,1,0,1.72,3.12,3.12,0,0,1-1.33,2.37Z"/><path class="cls-4" d="M30.78,27.84c0-.2.09-.24.18-.12a.79.79,0,0,1,0,.63c-.18.86-1.32,1.47-3.41,1.84a29.46,29.46,0,0,1-7.86,0,18.26,18.26,0,0,1-5.08-1.32,8.47,8.47,0,0,1-3.45-2.18c-.16-.21-.2-.34-.13-.37s.24.07.5.31a10,10,0,0,0,3.19,1.85,19.14,19.14,0,0,0,4.85,1.25,28.34,28.34,0,0,0,7.71,0c2.17-.35,3.32-1,3.46-2Z"/><path class="cls-4" d="M29.93,29.3a.52.52,0,0,1,.26-.4c.12,0,.17,0,.15.2a11.05,11.05,0,0,1-1.1,3.65,5.94,5.94,0,0,1-3,3,6.22,6.22,0,0,1-2,.25,17.8,17.8,0,0,1-3.1-.25,12.74,12.74,0,0,1-6.3-2.5,10,10,0,0,1-2-2.19A8.52,8.52,0,0,1,11.53,27c0-.12,0-.14.13-.08a.47.47,0,0,1,.19.31A8.5,8.5,0,0,0,12.71,30a9.39,9.39,0,0,0,2.34,3,12.29,12.29,0,0,0,6,2.33,18.56,18.56,0,0,0,3.1.28,5,5,0,0,0,2-.28A6.22,6.22,0,0,0,29,32.09a15.65,15.65,0,0,0,.89-2.79Z"/><path class="cls-4" d="M15.27,25a2.12,2.12,0,0,1,.07.66,2.75,2.75,0,0,1-.1.71c-.06.19-.12.29-.19.29s-.13-.12-.17-.35a4.43,4.43,0,0,1-.05-.66,3.37,3.37,0,0,1,.06-.66c0-.23.11-.34.18-.34s.14.12.2.35Z"/><path class="cls-4" d="M28,26.3a3.1,3.1,0,0,1-.06.64c-.07.26-.16.39-.28.39s-.17-.13-.24-.39a2.61,2.61,0,0,1-.09-.66,2.06,2.06,0,0,1,.08-.6q.11-.33.24-.33c.09,0,.17.12.24.34a1.68,1.68,0,0,1,.11.61Z"/><path class="cls-4" d="M14.07,32.33c-.07-.44-.14-1.09-.22-1.94l-.18-2.05c0-.13.06-.16.22-.08s.23.18.22.3.12,1.59.4,4.11c0,.1-.06.14-.18.11s-.21-.18-.26-.45Z"/><path class="cls-4" d="M17.05,31.85l.25,2.56c0,.14-.05.18-.2.11a.51.51,0,0,1-.27-.45l-.25-2.33a19.25,19.25,0,0,1-.11-2.35c0-.15.08-.2.23-.15a.27.27,0,0,1,.21.3,23,23,0,0,0,.14,2.31Z"/><path class="cls-4" d="M21.06,32.92a25.45,25.45,0,0,1-.19-2.8c0-.13.08-.18.23-.14a.3.3,0,0,1,.22.28,43.41,43.41,0,0,0,.6,5.25c0,.17,0,.27-.19.29a.26.26,0,0,1-.32-.16,19.08,19.08,0,0,1-.35-2.72Z"/><path class="cls-4" d="M25.72,32.76c-.2-1.46-.31-2.3-.32-2.5s.08-.22.24-.22.24.07.25.19c0,.44.16,1.29.37,2.55l.38,2.35a.51.51,0,0,1-.16.51c-.14.11-.24.08-.28-.07-.09-.34-.25-1.28-.48-2.81Z"/><path class="cls-4" d="M38.59,29.27a6.41,6.41,0,0,1,3.24,1.12,5.76,5.76,0,0,1,2.33,3.13c0,.1,0,.18-.12.24s-.21,0-.26-.14a5.54,5.54,0,0,0-1.9-2.55,8.15,8.15,0,0,0-3.52-1.58c-.19,0-.25-.09-.17-.14a.61.61,0,0,1,.4-.08Z"/><path class="cls-4" d="M40.44,22.71a27.32,27.32,0,0,1,4.78-.35c2.23,0,3.4.12,3.5.42s-.74,1.61-2.65,3.61a20.88,20.88,0,0,1-3.49,3.22l-.26,0c0-.08,0-.22.22-.41l3-3c1.78-1.86,2.61-2.9,2.48-3.12s-1.12-.24-3.08-.23a26,26,0,0,0-4.81.39q-.22,0-.06-.21a.6.6,0,0,1,.39-.31Z"/><path class="cls-4" d="M32.65,28.05a1.49,1.49,0,0,0-.19-.89A.61.61,0,0,0,32,26.9c-.4,0-.46,0-.16-.16a.74.74,0,0,1,.89.15,1.41,1.41,0,0,1,.16,1.19q-.07.34-.15.36t-.06-.39Z"/><path class="cls-4" d="M45.27,28.61l-1.68-.12c-.1,0-.12-.07-.05-.21a.43.43,0,0,1,.38-.23,6.82,6.82,0,0,1,1.84.15c.69.13,1.06.28,1.12.45s-.49.77-1.63,1.86a11.13,11.13,0,0,1-2,1.69c-.07,0-.14,0-.22-.1s-.08-.16,0-.23A23.53,23.53,0,0,0,45,30a5.56,5.56,0,0,0,1-1.21c0-.06-.27-.13-.76-.2Z"/><path class="cls-4" d="M41.46,48.49c-.24-.1-.36-.22-.37-.34s.14-.19.45-.16a4.1,4.1,0,0,0,1.64-.2c.53-.19.85-.43,1-.73s-.28-.64-1-1.38a16.72,16.72,0,0,0-2.39-2c-.07,0-.07-.15,0-.28s.12-.2.18-.16a18.22,18.22,0,0,1,2.4,1.89c1.12,1,1.62,1.76,1.51,2.19s-.63.79-1.56,1a3.17,3.17,0,0,1-1.81.15Z"/><path class="cls-4" d="M1.37,33.09c.18-.11.28-.14.3-.08s0,.16-.14.31l-.46.5c-.2.22-.29.36-.26.41s.23.09.56.09l.9-.06s0,0,.07.15,0,.16-.08.18l-1.2.11c-.5,0-.77,0-.83-.13s0-.31.19-.6a3.24,3.24,0,0,1,1-.88Z"/><path class="cls-4" d="M9.08,34.1c.12,0,.21.13.26.35s0,.31-.16.29a10.86,10.86,0,0,0-4.8.47l-1.56.55c-.44.15-.69.21-.77.16s-.18-.3-.15-.69a2.41,2.41,0,0,1,.15-.83c.12-.32.22-.49.32-.52s.11.11.07.42l-.09.62c0,.26,0,.4,0,.44s.23,0,.57-.16c.56-.24,1-.42,1.37-.54a11.43,11.43,0,0,1,4.77-.56Z"/><path class="cls-4" d="M45.78,33.11c.32.06.38.24.18.55a7.39,7.39,0,0,0-.49,1c-.08.2-.15.28-.22.23s-.06-.2,0-.48a5.71,5.71,0,0,1,.2-.54l.12-.32-.63,0a2.93,2.93,0,0,0-1.17.38c-.06,0-.12,0-.18-.08s0-.16,0-.21a2.81,2.81,0,0,1,1-.46l1.09,0Z"/><path class="cls-4" d="M47.14,34.9c0,.17-.37.46-1.16.85-.22.11-.35.13-.36.06s.08-.17.29-.33l.5-.39.26-.21c0-.11-.15-.21-.38-.31a1.47,1.47,0,0,0-.9-.1c-.09,0-.11,0-.07-.13a.34.34,0,0,1,.26-.2,1.38,1.38,0,0,1,1.05.19q.48.29.51.57Z"/><path class="cls-4" d="M45.82,35.58l.28,0a1,1,0,0,1,.58.44c.2.26.26.44.21.54s-.22.15-.53.19l-.5,0a16.2,16.2,0,0,1-5.24,1.46,7.27,7.27,0,0,1-4.45-.94c-.44-.27-.61-.43-.51-.49s.37.05.84.27a8.57,8.57,0,0,0,4.87.53,26.92,26.92,0,0,0,4.45-1.1l.39-.07c.17,0,.26-.06.27-.1s0-.14-.17-.28a2.15,2.15,0,0,0-.48-.36c-.06,0-.06-.06,0-.1Z"/><path class="cls-4" d="M42.47,37.73c-.25,1.57-.49,2.8-.71,3.68a11,11,0,0,1-1.28,3.22c-.18.29-.29.33-.33.14a1,1,0,0,1,.08-.61,26.14,26.14,0,0,0,1-2.83c.25-1,.48-2.15.68-3.47,0-.12.13-.21.33-.25s.3,0,.28.12Z"/><path class="cls-4" d="M40.78,25c-.14-.25-.13-.33,0-.23a2.05,2.05,0,0,1,.5.62,10.34,10.34,0,0,1,1.1,2.88,18.82,18.82,0,0,1,.38,3c0,.4-.09.46-.31.17a1.24,1.24,0,0,1-.34-.72,11.27,11.27,0,0,0-.34-3,12.63,12.63,0,0,0-1-2.76Z"/><path class="cls-2" d="M15.05,25.12c0-.16,0-.24,0-.24a2.51,2.51,0,0,1,0,.63c0,.33,0,.5,0,.5s-.06-.16-.06-.48l0-.41Z"/><path class="cls-2" d="M27.7,26.17c0,.36,0,.54-.06.51s-.06-.19-.06-.51,0-.61.06-.61.06.2.06.61Z"/><path class="cls-4" d="M31.42,22.83a19.07,19.07,0,0,1-3.36,2.36q-2.58,1.57-4.87,2.72a6.13,6.13,0,0,1-.82.35,1.43,1.43,0,0,1-.78.07A.55.55,0,0,1,21.1,28a.14.14,0,0,1,0-.14h.06a.87.87,0,0,0,.7.14,3.45,3.45,0,0,0,1.06-.37q1.65-.84,4-2.22,2.65-1.59,4.16-2.71c.35-.26.56-.37.64-.33s0,.2-.25.45Z"/><path class="cls-4" d="M13,19.34a16.57,16.57,0,0,0,2,4.48,20,20,0,0,0,2.76,3.75c.21.22.28.35.19.42s-.3-.07-.62-.39a17.85,17.85,0,0,1-2.92-4,12.48,12.48,0,0,1-1.64-4.07c0-.3,0-.48,0-.54s.13.06.2.36Z"/></g></g></svg>